<svg width="680" height="350" viewBox="0 0 680 350" xmlns="http://www.w3.org/2000/svg">
  <defs>
    <style>text { font-family: 'Courier New', Courier, monospace; }</style>
    <pattern id="scan" width="1" height="3" patternUnits="userSpaceOnUse">
      <rect width="1" height="1" fill="white" opacity="0.012"/>
    </pattern>
    <filter id="glow" x="-30%" y="-30%" width="160%" height="160%">
      <feGaussianBlur stdDeviation="3" result="blur"/>
      <feMerge>
        <feMergeNode in="blur"/>
        <feMergeNode in="blur"/>
        <feMergeNode in="SourceGraphic"/>
      </feMerge>
    </filter>
  </defs>

  <!-- bg -->
  <rect width="680" height="350" rx="5" ry="5" fill="#040607"/>
  <rect width="680" height="350" rx="5" ry="5" fill="none" stroke="rgba(127,255,158,0.1)" stroke-width="1"/>
  <rect width="680" height="350" rx="5" ry="5" fill="url(#scan)"/>

  <!-- title bar -->
  <rect width="680" height="36" rx="5" ry="5" fill="rgba(255,255,255,0.02)"/>
  <rect y="18" width="680" height="18" fill="rgba(255,255,255,0.02)"/>
  <rect y="36" width="680" height="1" fill="rgba(127,255,158,0.1)"/>

  <!-- traffic lights -->
  <circle cx="22" cy="18" r="5" fill="#2e1010" stroke="#4a1818" stroke-width="1"/>
  <circle cx="42" cy="18" r="5" fill="#2e2508" stroke="#4a3e10" stroke-width="1"/>
  <circle cx="62" cy="18" r="5" fill="#0c2610" stroke="#183e18" stroke-width="1"/>

  <!-- title -->
  <text x="340" y="22" font-size="11" fill="#dde6ec" text-anchor="middle" dominant-baseline="middle" letter-spacing="1">INTRO</text>

  <!-- prompt -->
  <text x="22" y="56" font-size="13">
    <tspan fill="#7fff9e" letter-spacing="0.3">$</tspan>
    <tspan fill="#475460"> nerdfetch</tspan>
  </text>

  <!-- pixel name — glowed group -->
  <g filter="url(#glow)">
    <rect x="165" y="70" width="8" height="8" rx="1.5" fill="#7fff9e"/>
    <rect x="175" y="70" width="8" height="8" rx="1.5" fill="#7fff9e"/>
    <rect x="185" y="70" width="8" height="8" rx="1.5" fill="#7fff9e"/>
    <rect x="155" y="80" width="8" height="8" rx="1.5" fill="#7fff9e"/>
    <rect x="195" y="80" width="8" height="8" rx="1.5" fill="#7fff9e"/>
    <rect x="155" y="90" width="8" height="8" rx="1.5" fill="#7fff9e"/>
    <rect x="165" y="100" width="8" height="8" rx="1.5" fill="#7fff9e"/>
    <rect x="175" y="100" width="8" height="8" rx="1.5" fill="#7fff9e"/>
    <rect x="185" y="100" width="8" height="8" rx="1.5" fill="#7fff9e"/>
    <rect x="195" y="110" width="8" height="8" rx="1.5" fill="#7fff9e"/>
    <rect x="155" y="120" width="8" height="8" rx="1.5" fill="#7fff9e"/>
    <rect x="195" y="120" width="8" height="8" rx="1.5" fill="#7fff9e"/>
    <rect x="165" y="130" width="8" height="8" rx="1.5" fill="#7fff9e"/>
    <rect x="175" y="130" width="8" height="8" rx="1.5" fill="#7fff9e"/>
    <rect x="185" y="130" width="8" height="8" rx="1.5" fill="#7fff9e"/>
    <rect x="229" y="70" width="8" height="8" rx="1.5" fill="#7fff9e"/>
    <rect x="239" y="70" width="8" height="8" rx="1.5" fill="#7fff9e"/>
    <rect x="249" y="70" width="8" height="8" rx="1.5" fill="#7fff9e"/>
    <rect x="219" y="80" width="8" height="8" rx="1.5" fill="#7fff9e"/>
    <rect x="259" y="80" width="8" height="8" rx="1.5" fill="#7fff9e"/>
    <rect x="219" y="90" width="8" height="8" rx="1.5" fill="#7fff9e"/>
    <rect x="259" y="90" width="8" height="8" rx="1.5" fill="#7fff9e"/>
    <rect x="219" y="100" width="8" height="8" rx="1.5" fill="#7fff9e"/>
    <rect x="229" y="100" width="8" height="8" rx="1.5" fill="#7fff9e"/>
    <rect x="239" y="100" width="8" height="8" rx="1.5" fill="#7fff9e"/>
    <rect x="249" y="100" width="8" height="8" rx="1.5" fill="#7fff9e"/>
    <rect x="259" y="100" width="8" height="8" rx="1.5" fill="#7fff9e"/>
    <rect x="219" y="110" width="8" height="8" rx="1.5" fill="#7fff9e"/>
    <rect x="259" y="110" width="8" height="8" rx="1.5" fill="#7fff9e"/>
    <rect x="219" y="120" width="8" height="8" rx="1.5" fill="#7fff9e"/>
    <rect x="259" y="120" width="8" height="8" rx="1.5" fill="#7fff9e"/>
    <rect x="219" y="130" width="8" height="8" rx="1.5" fill="#7fff9e"/>
    <rect x="259" y="130" width="8" height="8" rx="1.5" fill="#7fff9e"/>
    <rect x="283" y="70" width="8" height="8" rx="1.5" fill="#7fff9e"/>
    <rect x="323" y="70" width="8" height="8" rx="1.5" fill="#7fff9e"/>
    <rect x="283" y="80" width="8" height="8" rx="1.5" fill="#7fff9e"/>
    <rect x="293" y="80" width="8" height="8" rx="1.5" fill="#7fff9e"/>
    <rect x="313" y="80" width="8" height="8" rx="1.5" fill="#7fff9e"/>
    <rect x="323" y="80" width="8" height="8" rx="1.5" fill="#7fff9e"/>
    <rect x="283" y="90" width="8" height="8" rx="1.5" fill="#7fff9e"/>
    <rect x="303" y="90" width="8" height="8" rx="1.5" fill="#7fff9e"/>
    <rect x="323" y="90" width="8" height="8" rx="1.5" fill="#7fff9e"/>
    <rect x="283" y="100" width="8" height="8" rx="1.5" fill="#7fff9e"/>
    <rect x="303" y="100" width="8" height="8" rx="1.5" fill="#7fff9e"/>
    <rect x="323" y="100" width="8" height="8" rx="1.5" fill="#7fff9e"/>
    <rect x="283" y="110" width="8" height="8" rx="1.5" fill="#7fff9e"/>
    <rect x="323" y="110" width="8" height="8" rx="1.5" fill="#7fff9e"/>
    <rect x="283" y="120" width="8" height="8" rx="1.5" fill="#7fff9e"/>
    <rect x="323" y="120" width="8" height="8" rx="1.5" fill="#7fff9e"/>
    <rect x="283" y="130" width="8" height="8" rx="1.5" fill="#7fff9e"/>
    <rect x="323" y="130" width="8" height="8" rx="1.5" fill="#7fff9e"/>
    <rect x="347" y="70" width="8" height="8" rx="1.5" fill="#7fff9e"/>
    <rect x="387" y="70" width="8" height="8" rx="1.5" fill="#7fff9e"/>
    <rect x="347" y="80" width="8" height="8" rx="1.5" fill="#7fff9e"/>
    <rect x="387" y="80" width="8" height="8" rx="1.5" fill="#7fff9e"/>
    <rect x="347" y="90" width="8" height="8" rx="1.5" fill="#7fff9e"/>
    <rect x="387" y="90" width="8" height="8" rx="1.5" fill="#7fff9e"/>
    <rect x="347" y="100" width="8" height="8" rx="1.5" fill="#7fff9e"/>
    <rect x="387" y="100" width="8" height="8" rx="1.5" fill="#7fff9e"/>
    <rect x="347" y="110" width="8" height="8" rx="1.5" fill="#7fff9e"/>
    <rect x="387" y="110" width="8" height="8" rx="1.5" fill="#7fff9e"/>
    <rect x="347" y="120" width="8" height="8" rx="1.5" fill="#7fff9e"/>
    <rect x="387" y="120" width="8" height="8" rx="1.5" fill="#7fff9e"/>
    <rect x="357" y="130" width="8" height="8" rx="1.5" fill="#7fff9e"/>
    <rect x="367" y="130" width="8" height="8" rx="1.5" fill="#7fff9e"/>
    <rect x="377" y="130" width="8" height="8" rx="1.5" fill="#7fff9e"/>
    <rect x="411" y="70" width="8" height="8" rx="1.5" fill="#7fff9e"/>
    <rect x="421" y="70" width="8" height="8" rx="1.5" fill="#7fff9e"/>
    <rect x="431" y="70" width="8" height="8" rx="1.5" fill="#7fff9e"/>
    <rect x="441" y="70" width="8" height="8" rx="1.5" fill="#7fff9e"/>
    <rect x="451" y="70" width="8" height="8" rx="1.5" fill="#7fff9e"/>
    <rect x="411" y="80" width="8" height="8" rx="1.5" fill="#7fff9e"/>
    <rect x="411" y="90" width="8" height="8" rx="1.5" fill="#7fff9e"/>
    <rect x="411" y="100" width="8" height="8" rx="1.5" fill="#7fff9e"/>
    <rect x="421" y="100" width="8" height="8" rx="1.5" fill="#7fff9e"/>
    <rect x="431" y="100" width="8" height="8" rx="1.5" fill="#7fff9e"/>
    <rect x="441" y="100" width="8" height="8" rx="1.5" fill="#7fff9e"/>
    <rect x="411" y="110" width="8" height="8" rx="1.5" fill="#7fff9e"/>
    <rect x="411" y="120" width="8" height="8" rx="1.5" fill="#7fff9e"/>
    <rect x="411" y="130" width="8" height="8" rx="1.5" fill="#7fff9e"/>
    <rect x="421" y="130" width="8" height="8" rx="1.5" fill="#7fff9e"/>
    <rect x="431" y="130" width="8" height="8" rx="1.5" fill="#7fff9e"/>
    <rect x="441" y="130" width="8" height="8" rx="1.5" fill="#7fff9e"/>
    <rect x="451" y="130" width="8" height="8" rx="1.5" fill="#7fff9e"/>
    <rect x="475" y="70" width="8" height="8" rx="1.5" fill="#7fff9e"/>
    <rect x="475" y="80" width="8" height="8" rx="1.5" fill="#7fff9e"/>
    <rect x="475" y="90" width="8" height="8" rx="1.5" fill="#7fff9e"/>
    <rect x="475" y="100" width="8" height="8" rx="1.5" fill="#7fff9e"/>
    <rect x="475" y="110" width="8" height="8" rx="1.5" fill="#7fff9e"/>
    <rect x="475" y="120" width="8" height="8" rx="1.5" fill="#7fff9e"/>
    <rect x="475" y="130" width="8" height="8" rx="1.5" fill="#7fff9e"/>
    <rect x="485" y="130" width="8" height="8" rx="1.5" fill="#7fff9e"/>
    <rect x="495" y="130" width="8" height="8" rx="1.5" fill="#7fff9e"/>
    <rect x="505" y="130" width="8" height="8" rx="1.5" fill="#7fff9e"/>
    <rect x="515" y="130" width="8" height="8" rx="1.5" fill="#7fff9e"/>
    <rect x="123" y="156" width="8" height="8" rx="1.5" fill="#7fff9e"/>
    <rect x="163" y="156" width="8" height="8" rx="1.5" fill="#7fff9e"/>
    <rect x="123" y="166" width="8" height="8" rx="1.5" fill="#7fff9e"/>
    <rect x="133" y="166" width="8" height="8" rx="1.5" fill="#7fff9e"/>
    <rect x="153" y="166" width="8" height="8" rx="1.5" fill="#7fff9e"/>
    <rect x="163" y="166" width="8" height="8" rx="1.5" fill="#7fff9e"/>
    <rect x="123" y="176" width="8" height="8" rx="1.5" fill="#7fff9e"/>
    <rect x="143" y="176" width="8" height="8" rx="1.5" fill="#7fff9e"/>
    <rect x="163" y="176" width="8" height="8" rx="1.5" fill="#7fff9e"/>
    <rect x="123" y="186" width="8" height="8" rx="1.5" fill="#7fff9e"/>
    <rect x="143" y="186" width="8" height="8" rx="1.5" fill="#7fff9e"/>
    <rect x="163" y="186" width="8" height="8" rx="1.5" fill="#7fff9e"/>
    <rect x="123" y="196" width="8" height="8" rx="1.5" fill="#7fff9e"/>
    <rect x="163" y="196" width="8" height="8" rx="1.5" fill="#7fff9e"/>
    <rect x="123" y="206" width="8" height="8" rx="1.5" fill="#7fff9e"/>
    <rect x="163" y="206" width="8" height="8" rx="1.5" fill="#7fff9e"/>
    <rect x="123" y="216" width="8" height="8" rx="1.5" fill="#7fff9e"/>
    <rect x="163" y="216" width="8" height="8" rx="1.5" fill="#7fff9e"/>
    <rect x="187" y="156" width="8" height="8" rx="1.5" fill="#7fff9e"/>
    <rect x="227" y="156" width="8" height="8" rx="1.5" fill="#7fff9e"/>
    <rect x="187" y="166" width="8" height="8" rx="1.5" fill="#7fff9e"/>
    <rect x="227" y="166" width="8" height="8" rx="1.5" fill="#7fff9e"/>
    <rect x="187" y="176" width="8" height="8" rx="1.5" fill="#7fff9e"/>
    <rect x="227" y="176" width="8" height="8" rx="1.5" fill="#7fff9e"/>
    <rect x="187" y="186" width="8" height="8" rx="1.5" fill="#7fff9e"/>
    <rect x="207" y="186" width="8" height="8" rx="1.5" fill="#7fff9e"/>
    <rect x="227" y="186" width="8" height="8" rx="1.5" fill="#7fff9e"/>
    <rect x="187" y="196" width="8" height="8" rx="1.5" fill="#7fff9e"/>
    <rect x="207" y="196" width="8" height="8" rx="1.5" fill="#7fff9e"/>
    <rect x="227" y="196" width="8" height="8" rx="1.5" fill="#7fff9e"/>
    <rect x="187" y="206" width="8" height="8" rx="1.5" fill="#7fff9e"/>
    <rect x="197" y="206" width="8" height="8" rx="1.5" fill="#7fff9e"/>
    <rect x="217" y="206" width="8" height="8" rx="1.5" fill="#7fff9e"/>
    <rect x="227" y="206" width="8" height="8" rx="1.5" fill="#7fff9e"/>
    <rect x="187" y="216" width="8" height="8" rx="1.5" fill="#7fff9e"/>
    <rect x="227" y="216" width="8" height="8" rx="1.5" fill="#7fff9e"/>
    <rect x="261" y="156" width="8" height="8" rx="1.5" fill="#7fff9e"/>
    <rect x="271" y="156" width="8" height="8" rx="1.5" fill="#7fff9e"/>
    <rect x="281" y="156" width="8" height="8" rx="1.5" fill="#7fff9e"/>
    <rect x="251" y="166" width="8" height="8" rx="1.5" fill="#7fff9e"/>
    <rect x="291" y="166" width="8" height="8" rx="1.5" fill="#7fff9e"/>
    <rect x="251" y="176" width="8" height="8" rx="1.5" fill="#7fff9e"/>
    <rect x="291" y="176" width="8" height="8" rx="1.5" fill="#7fff9e"/>
    <rect x="251" y="186" width="8" height="8" rx="1.5" fill="#7fff9e"/>
    <rect x="261" y="186" width="8" height="8" rx="1.5" fill="#7fff9e"/>
    <rect x="271" y="186" width="8" height="8" rx="1.5" fill="#7fff9e"/>
    <rect x="281" y="186" width="8" height="8" rx="1.5" fill="#7fff9e"/>
    <rect x="291" y="186" width="8" height="8" rx="1.5" fill="#7fff9e"/>
    <rect x="251" y="196" width="8" height="8" rx="1.5" fill="#7fff9e"/>
    <rect x="291" y="196" width="8" height="8" rx="1.5" fill="#7fff9e"/>
    <rect x="251" y="206" width="8" height="8" rx="1.5" fill="#7fff9e"/>
    <rect x="291" y="206" width="8" height="8" rx="1.5" fill="#7fff9e"/>
    <rect x="251" y="216" width="8" height="8" rx="1.5" fill="#7fff9e"/>
    <rect x="291" y="216" width="8" height="8" rx="1.5" fill="#7fff9e"/>
    <rect x="315" y="156" width="8" height="8" rx="1.5" fill="#7fff9e"/>
    <rect x="315" y="166" width="8" height="8" rx="1.5" fill="#7fff9e"/>
    <rect x="315" y="176" width="8" height="8" rx="1.5" fill="#7fff9e"/>
    <rect x="315" y="186" width="8" height="8" rx="1.5" fill="#7fff9e"/>
    <rect x="315" y="196" width="8" height="8" rx="1.5" fill="#7fff9e"/>
    <rect x="315" y="206" width="8" height="8" rx="1.5" fill="#7fff9e"/>
    <rect x="315" y="216" width="8" height="8" rx="1.5" fill="#7fff9e"/>
    <rect x="325" y="216" width="8" height="8" rx="1.5" fill="#7fff9e"/>
    <rect x="335" y="216" width="8" height="8" rx="1.5" fill="#7fff9e"/>
    <rect x="345" y="216" width="8" height="8" rx="1.5" fill="#7fff9e"/>
    <rect x="355" y="216" width="8" height="8" rx="1.5" fill="#7fff9e"/>
    <rect x="389" y="156" width="8" height="8" rx="1.5" fill="#7fff9e"/>
    <rect x="399" y="156" width="8" height="8" rx="1.5" fill="#7fff9e"/>
    <rect x="409" y="156" width="8" height="8" rx="1.5" fill="#7fff9e"/>
    <rect x="379" y="166" width="8" height="8" rx="1.5" fill="#7fff9e"/>
    <rect x="419" y="166" width="8" height="8" rx="1.5" fill="#7fff9e"/>
    <rect x="379" y="176" width="8" height="8" rx="1.5" fill="#7fff9e"/>
    <rect x="419" y="176" width="8" height="8" rx="1.5" fill="#7fff9e"/>
    <rect x="379" y="186" width="8" height="8" rx="1.5" fill="#7fff9e"/>
    <rect x="389" y="186" width="8" height="8" rx="1.5" fill="#7fff9e"/>
    <rect x="399" y="186" width="8" height="8" rx="1.5" fill="#7fff9e"/>
    <rect x="409" y="186" width="8" height="8" rx="1.5" fill="#7fff9e"/>
    <rect x="419" y="186" width="8" height="8" rx="1.5" fill="#7fff9e"/>
    <rect x="379" y="196" width="8" height="8" rx="1.5" fill="#7fff9e"/>
    <rect x="419" y="196" width="8" height="8" rx="1.5" fill="#7fff9e"/>
    <rect x="379" y="206" width="8" height="8" rx="1.5" fill="#7fff9e"/>
    <rect x="419" y="206" width="8" height="8" rx="1.5" fill="#7fff9e"/>
    <rect x="379" y="216" width="8" height="8" rx="1.5" fill="#7fff9e"/>
    <rect x="419" y="216" width="8" height="8" rx="1.5" fill="#7fff9e"/>
    <rect x="443" y="156" width="8" height="8" rx="1.5" fill="#7fff9e"/>
    <rect x="483" y="156" width="8" height="8" rx="1.5" fill="#7fff9e"/>
    <rect x="443" y="166" width="8" height="8" rx="1.5" fill="#7fff9e"/>
    <rect x="453" y="166" width="8" height="8" rx="1.5" fill="#7fff9e"/>
    <rect x="473" y="166" width="8" height="8" rx="1.5" fill="#7fff9e"/>
    <rect x="483" y="166" width="8" height="8" rx="1.5" fill="#7fff9e"/>
    <rect x="443" y="176" width="8" height="8" rx="1.5" fill="#7fff9e"/>
    <rect x="463" y="176" width="8" height="8" rx="1.5" fill="#7fff9e"/>
    <rect x="483" y="176" width="8" height="8" rx="1.5" fill="#7fff9e"/>
    <rect x="443" y="186" width="8" height="8" rx="1.5" fill="#7fff9e"/>
    <rect x="463" y="186" width="8" height="8" rx="1.5" fill="#7fff9e"/>
    <rect x="483" y="186" width="8" height="8" rx="1.5" fill="#7fff9e"/>
    <rect x="443" y="196" width="8" height="8" rx="1.5" fill="#7fff9e"/>
    <rect x="483" y="196" width="8" height="8" rx="1.5" fill="#7fff9e"/>
    <rect x="443" y="206" width="8" height="8" rx="1.5" fill="#7fff9e"/>
    <rect x="483" y="206" width="8" height="8" rx="1.5" fill="#7fff9e"/>
    <rect x="443" y="216" width="8" height="8" rx="1.5" fill="#7fff9e"/>
    <rect x="483" y="216" width="8" height="8" rx="1.5" fill="#7fff9e"/>
    <rect x="507" y="156" width="8" height="8" rx="1.5" fill="#7fff9e"/>
    <rect x="517" y="156" width="8" height="8" rx="1.5" fill="#7fff9e"/>
    <rect x="527" y="156" width="8" height="8" rx="1.5" fill="#7fff9e"/>
    <rect x="537" y="156" width="8" height="8" rx="1.5" fill="#7fff9e"/>
    <rect x="547" y="156" width="8" height="8" rx="1.5" fill="#7fff9e"/>
    <rect x="527" y="166" width="8" height="8" rx="1.5" fill="#7fff9e"/>
    <rect x="527" y="176" width="8" height="8" rx="1.5" fill="#7fff9e"/>
    <rect x="527" y="186" width="8" height="8" rx="1.5" fill="#7fff9e"/>
    <rect x="527" y="196" width="8" height="8" rx="1.5" fill="#7fff9e"/>
    <rect x="527" y="206" width="8" height="8" rx="1.5" fill="#7fff9e"/>
    <rect x="507" y="216" width="8" height="8" rx="1.5" fill="#7fff9e"/>
    <rect x="517" y="216" width="8" height="8" rx="1.5" fill="#7fff9e"/>
    <rect x="527" y="216" width="8" height="8" rx="1.5" fill="#7fff9e"/>
    <rect x="537" y="216" width="8" height="8" rx="1.5" fill="#7fff9e"/>
    <rect x="547" y="216" width="8" height="8" rx="1.5" fill="#7fff9e"/>
  </g>

  <!-- divider -->
  <rect x="123" y="234" width="434" height="1" fill="rgba(127,255,158,0.12)"/>

  <!-- subtitles — stacked, light weight -->
  <text x="340" y="253" font-size="11.5" font-family="'Courier New', Courier, monospace" fill="#dde6ec" text-anchor="middle" letter-spacing="4">SOFTWARE ENGINEER</text>
  <text x="340" y="272" font-size="11.5" font-family="'Courier New', Courier, monospace" fill="#8fa8b8" text-anchor="middle" letter-spacing="4">BACKEND &amp; SYSTEMS</text>

  <!-- next prompt -->
  <text x="22" y="302" font-size="13">
    <tspan fill="#7fff9e" letter-spacing="0.3">$</tspan>
    <tspan fill="#475460"> nvim WHO_AM_I.toml</tspan>
  </text>

  <!-- cursor -->
  <rect x="22" y="313" width="2" height="14" fill="#7fff9e">
    <animate attributeName="opacity" values="1;1;0;0;1" keyTimes="0;0.45;0.5;0.95;1" dur="1.1s" repeatCount="indefinite"/>
  </rect>
</svg>